<svg width="25" height="24" viewBox="0 0 25 24" fill="none" xmlns="http://www.w3.org/2000/svg">
<rect x="0.0375977" width="24" height="24" rx="7.09091" fill="#FF785A"/>
<path d="M12.0398 7.52366C9.56323 7.52366 7.56564 9.52125 7.56564 11.9978C7.56564 14.4743 9.56323 16.4719 12.0398 16.4719C14.5163 16.4719 16.5139 14.4743 16.5139 11.9978C16.5139 9.52125 14.5163 7.52366 12.0398 7.52366ZM12.0398 14.9066C10.4394 14.9066 9.131 13.6021 9.131 11.9978C9.131 10.3935 10.4355 9.08902 12.0398 9.08902C13.6441 9.08902 14.9485 10.3935 14.9485 11.9978C14.9485 13.6021 13.6402 14.9066 12.0398 14.9066ZM17.7405 7.34065C17.7405 7.92084 17.2732 8.38422 16.6969 8.38422C16.1167 8.38422 15.6533 7.91695 15.6533 7.34065C15.6533 6.76434 16.1206 6.29707 16.6969 6.29707C17.2732 6.29707 17.7405 6.76434 17.7405 7.34065ZM20.7038 8.39979C20.6376 7.00187 20.3183 5.7636 19.2942 4.74339C18.274 3.72318 17.0357 3.40388 15.6378 3.33379C14.197 3.25202 9.87864 3.25202 8.43788 3.33379C7.04385 3.39999 5.80558 3.71929 4.78148 4.7395C3.75738 5.75971 3.44197 6.99798 3.37188 8.3959C3.2901 9.83665 3.2901 14.155 3.37188 15.5958C3.43807 16.9937 3.75738 18.232 4.78148 19.2522C5.80558 20.2724 7.03996 20.5917 8.43788 20.6618C9.87864 20.7436 14.197 20.7436 15.6378 20.6618C17.0357 20.5956 18.274 20.2763 19.2942 19.2522C20.3144 18.232 20.6337 16.9937 20.7038 15.5958C20.7855 14.155 20.7855 9.84055 20.7038 8.39979ZM18.8425 17.1417C18.5387 17.9049 17.9508 18.4929 17.1837 18.8005C16.0349 19.2561 13.3092 19.1509 12.0398 19.1509C10.7703 19.1509 8.0407 19.2522 6.89588 18.8005C6.13267 18.4968 5.54469 17.9088 5.23707 17.1417C4.78148 15.993 4.88662 13.2672 4.88662 11.9978C4.88662 10.7284 4.78537 7.99872 5.23707 6.8539C5.5408 6.09069 6.12878 5.50271 6.89588 5.19509C8.04459 4.7395 10.7703 4.84464 12.0398 4.84464C13.3092 4.84464 16.0388 4.74339 17.1837 5.19509C17.9469 5.49882 18.5348 6.0868 18.8425 6.8539C19.2981 8.00261 19.1929 10.7284 19.1929 11.9978C19.1929 13.2672 19.2981 15.9969 18.8425 17.1417Z" fill="white"/>
</svg>
