<svg width="25" height="24" viewBox="0 0 25 24" fill="none" xmlns="http://www.w3.org/2000/svg">
<rect x="0.0375977" width="24" height="24" rx="7.09091" fill="#FF785A"/>
<path d="M18.971 8.98709C18.982 9.14214 18.982 9.29722 18.982 9.45226C18.982 14.1814 15.3826 19.6304 8.80388 19.6304C6.77709 19.6304 4.89431 19.0434 3.31055 18.0245C3.59851 18.0577 3.87537 18.0688 4.17441 18.0688C5.84675 18.0688 7.38623 17.504 8.61559 16.5404C7.0429 16.5072 5.72494 15.4772 5.27085 14.0596C5.49237 14.0928 5.71386 14.1149 5.94647 14.1149C6.26764 14.1149 6.58884 14.0706 6.88786 13.9931C5.24872 13.6608 4.01933 12.2211 4.01933 10.4823V10.438C4.49555 10.7038 5.04936 10.8699 5.63631 10.892C4.67276 10.2497 4.04149 9.15322 4.04149 7.91278C4.04149 7.24828 4.21866 6.63914 4.52879 6.10752C6.28976 8.27827 8.93676 9.69588 11.9049 9.85096C11.8495 9.58515 11.8163 9.3083 11.8163 9.03141C11.8163 7.05999 13.4111 5.4541 15.3936 5.4541C16.4236 5.4541 17.3539 5.88604 18.0074 6.58378C18.8158 6.42873 19.5911 6.12968 20.2778 5.71991C20.012 6.55057 19.4471 7.24831 18.7051 7.69129C19.425 7.6138 20.1227 7.4144 20.7651 7.13755C20.2779 7.84634 19.6687 8.4776 18.971 8.98709Z" fill="white"/>
</svg>
