<svg width="167" height="60" viewBox="0 0 167 60" fill="none" xmlns="http://www.w3.org/2000/svg">
<path d="M70.2858 48.4698C69.719 48.7727 69.212 49.0717 68.6891 49.3234C66.6534 50.2833 64.6337 51.2903 62.5661 52.1636C60.2071 53.1746 57.8202 54.1305 55.4093 55.0234C53.4694 55.7394 51.4736 56.3137 49.5018 56.9431C48.6317 57.2224 47.7655 57.5096 46.8834 57.7299C45.6859 58.0328 44.4685 58.3081 43.2471 58.5402C41.5706 58.8589 39.8862 59.1657 38.1978 59.4017C36.661 59.6181 35.1123 59.7951 33.5676 59.8699C31.8273 59.9721 30.079 60.0036 28.3347 59.9997C27.4637 59.9767 26.5948 59.9045 25.7322 59.7833C24.6329 59.6982 23.5398 59.5471 22.4591 59.3309C20.651 58.8982 18.8029 58.5756 17.0746 57.8518C16.0856 57.4517 15.1184 57.0013 14.1767 56.5026C13.0005 55.887 11.8683 55.193 10.7879 54.4255C9.46692 53.419 8.23692 52.3015 7.11169 51.0857C5.57365 49.4448 4.27338 47.6021 3.24788 45.6099C2.13047 43.4731 1.36008 41.1767 0.964757 38.8045C0.617431 37.0176 0.470159 35.1984 0.525655 33.3798C0.5981 30.8217 1.04442 28.2872 1.85084 25.8545C2.30189 24.5997 2.70903 23.3251 3.18402 22.0781C3.47662 21.346 3.80974 20.6303 4.1819 19.9342C4.70479 18.9114 5.20374 17.869 5.81444 16.8973C6.63271 15.5953 7.49887 14.3128 8.44486 13.0934C9.155 12.2503 9.91049 11.4453 10.7081 10.682C11.2629 10.1076 11.8017 9.50183 12.4085 8.99831C13.079 8.42791 13.8135 7.92439 14.5359 7.4248C15.3742 6.82687 16.2044 6.21713 17.0825 5.68214C17.8369 5.22189 18.6792 4.86785 19.4415 4.45087C19.8407 4.22664 20.2399 3.93948 20.663 3.72705C21.0454 3.54951 21.4372 3.39194 21.8365 3.255C22.3394 3.06225 22.8383 2.86163 23.3493 2.68854C23.9799 2.48136 24.6146 2.28336 25.2532 2.09454C26.0994 1.84671 26.9456 1.59495 27.7998 1.38253C28.4704 1.22124 29.1569 1.13077 29.8315 0.989149C34.2941 0.0135738 38.8165 -0.108373 43.3548 0.127653C45.167 0.21813 46.9792 0.355812 48.7714 0.619375C51.5982 0.98149 54.3981 1.52418 57.1536 2.24402C59.5485 2.9167 61.9873 3.5461 64.3663 4.30532C66.3102 4.92686 68.2261 5.6546 70.1141 6.43349C72.2376 7.31465 74.3611 8.22336 76.4088 9.26974C78.664 10.4223 80.8593 11.7008 83.0307 13.0029C86.3038 14.9698 89.2775 17.33 92.2551 19.6903C94.219 21.2638 96.1469 22.8373 98.0908 24.4384L98.1866 24.5131C98.8093 24.9891 98.7973 24.9734 99.4758 24.5524C100.616 23.7992 101.986 23.4586 103.352 23.5887C104.334 23.6949 104.9 24.5052 104.685 25.6028C104.501 26.5272 104.286 27.4438 104.034 28.3564C103.958 28.5252 103.948 28.7161 104.007 28.8916C104.066 29.0671 104.19 29.2144 104.354 29.3045C104.829 29.5995 105.272 29.9378 105.699 30.2367C106.118 29.4146 106.473 28.62 106.896 27.8765C107.663 26.4393 108.825 25.2437 110.249 24.4266C111.085 23.9608 112.013 23.6764 112.97 23.5923C113.926 23.5082 114.89 23.6263 115.797 23.9388C116.359 24.1209 116.866 24.4387 117.271 24.8634C117.676 25.2881 117.967 25.806 118.116 26.3698C118.623 27.9788 118.396 29.5405 117.825 31.0668C117.218 32.8577 116.017 34.3955 114.416 35.4333C114.109 35.63 113.762 35.7637 113.378 35.9565C114.261 36.5662 115.119 37.1602 115.973 37.7581C116.148 37.8801 116.296 37.9233 116.428 37.7188C117.254 36.4285 118.116 35.1579 118.887 33.8401C119.061 33.4289 119.123 32.98 119.066 32.538C118.99 30.8976 118.819 29.2651 118.787 27.6247C118.824 26.8758 118.945 26.1331 119.146 25.41C119.208 25.2001 119.335 25.0146 119.509 24.879C120.547 24.0124 121.884 23.5753 123.241 23.6595C123.369 23.6464 123.498 23.6654 123.616 23.7146C123.735 23.7638 123.839 23.8416 123.918 23.9409C123.998 24.0401 124.051 24.1576 124.072 24.2824C124.093 24.4072 124.082 24.5353 124.04 24.6547C123.581 26.2479 123.844 27.8332 123.996 29.4185C124.076 30.2879 124.199 31.1533 124.307 32.0187C124.335 32.1446 124.372 32.2682 124.419 32.3885C124.545 32.275 124.66 32.1499 124.762 32.0148C126.117 29.6626 127.619 27.3963 129.261 25.2291C129.827 24.4856 130.458 23.809 131.448 23.6555C131.789 23.6006 132.137 23.6006 132.478 23.6555C132.977 23.7342 133.097 24.0017 132.809 24.4069C132.434 24.9458 131.967 25.4218 131.612 25.9804C130.394 27.7349 129.185 29.4972 128.019 31.2792C127.057 32.7268 126.119 34.1941 125.225 35.685C125.085 36.0365 125.067 36.4237 125.173 36.7865C125.413 37.8801 125.716 38.9579 126 40.0397C126.04 40.1853 126.092 40.3274 126.155 40.4646C126.435 41.1176 126.69 41.1569 127.121 40.5786C127.538 40.0327 127.926 39.4654 128.283 38.8792C129.245 37.2664 130.231 35.6693 131.113 34.0132C133.025 30.4098 134.937 26.8065 137.364 23.5061C138.333 22.2093 139.401 20.9864 140.557 19.8477C141.623 18.7765 142.769 17.7851 143.985 16.8816C146.219 15.1801 148.81 13.992 151.569 13.4041C153.561 13.0059 155.621 13.0828 157.577 13.6284C158.79 14.0091 159.929 14.589 160.946 15.3435C162.849 16.6377 164.043 18.4905 164.969 20.5282C165.576 21.9524 165.967 23.4567 166.131 24.993C166.467 27.837 166.258 30.7179 165.516 33.486C165.276 34.4341 164.885 35.3428 164.566 36.2672C164.494 36.4757 164.438 36.6921 164.35 36.8927C164.163 37.2861 163.975 37.707 163.756 38.0925C163.43 38.7024 163.072 39.2947 162.682 39.8666C162.616 39.9575 162.554 40.0524 162.492 40.1476C162.268 40.4891 162.046 40.8376 161.656 41.0468C161.56 41.0979 161.544 41.2867 161.528 41.3182C161.225 41.6329 160.997 41.9004 160.73 42.1364C160.139 42.6635 159.533 43.1907 158.938 43.6902C158.343 44.1898 157.645 44.7602 156.942 45.2244C156.358 45.5852 155.75 45.9059 155.122 46.1843C154.383 46.5383 153.645 46.912 152.879 47.1952C151.932 47.5952 150.938 47.8767 149.921 48.0331C149.242 48.1079 148.58 48.3124 147.901 48.4265C147.526 48.4973 147.139 48.517 146.756 48.5642C142.836 49.0096 138.868 48.7793 135.028 47.8836C132.484 47.2702 130.009 46.4016 127.644 45.2913C126.479 44.7681 125.381 44.0679 124.092 43.8279C123.916 43.7859 123.752 43.7052 123.613 43.5919C122.814 42.99 122.016 42.3803 121.27 41.8099C120.619 42.3606 120.044 42.8917 119.422 43.3637C118.875 43.7714 118.202 43.9787 117.518 43.9499C117.366 43.9499 117.118 43.8791 117.09 43.7965C117.062 43.6239 117.103 43.4471 117.206 43.3047C117.605 42.7816 118.036 42.282 118.448 41.7666C118.659 41.4952 118.847 41.2041 119.046 40.9287C119.17 40.7635 119.162 40.6534 118.967 40.5354C118.412 40.201 117.869 39.8509 117.322 39.5008C117.122 39.371 117.027 39.4614 116.883 39.6149C116.085 40.4921 115.286 41.4047 114.408 42.1994C113.324 43.2597 111.878 43.8838 110.353 43.9499C108.549 43.9892 107.16 43.2221 106.074 41.8453C105.37 40.9107 104.908 39.821 104.729 38.6708C104.629 38.1397 104.573 37.6047 104.493 37.0658L103.116 39.312C102.34 40.7018 101.332 41.9531 100.134 43.0136C99.5553 43.4709 98.8692 43.7779 98.1387 43.9066C97.7552 43.9423 97.3712 43.8435 97.0543 43.6276C96.7375 43.4118 96.508 43.0927 96.4063 42.7265C96.3307 42.408 96.2932 42.0819 96.2946 41.7548C96.1988 39.5441 96.55 37.3687 96.8454 35.1894C97.037 33.8086 97.2446 32.4357 97.4721 31.055C97.5479 30.5711 97.6557 30.0873 97.7475 29.6034L97.6118 29.5601C97.033 30.6852 96.4143 31.7945 95.8874 32.9432C95.0253 34.8235 94.2469 36.7353 93.3848 38.6117C92.7541 39.9768 92.1115 41.3654 91.0577 42.4629C90.3987 43.2148 89.4935 43.7158 88.4991 43.8791C88.1285 43.9499 87.7445 43.8786 87.4255 43.6797C87.1065 43.4809 86.8766 43.1694 86.7828 42.8091C86.6201 41.9801 86.5705 41.1334 86.6351 40.2915C86.8746 37.7896 87.13 35.2877 87.5212 32.8173C87.8365 30.8268 88.3435 28.8835 88.8145 26.9166C88.9808 26.3544 89.2041 25.8101 89.481 25.292C89.6366 25.0233 89.8471 24.7894 90.0993 24.6052C90.3515 24.421 90.6398 24.2905 90.9459 24.222C92.1755 23.7878 93.4762 23.5824 94.7818 23.6162C94.9625 23.62 95.141 23.656 95.3087 23.7224C95.3868 23.7477 95.4586 23.789 95.5194 23.8435C95.5802 23.8981 95.6286 23.9647 95.6614 24.039C95.6942 24.1133 95.7106 24.1936 95.7097 24.2747C95.7088 24.3557 95.6905 24.4356 95.656 24.5092C95.173 25.9725 94.6581 27.428 94.2389 28.9111C93.9156 30.0637 93.7081 31.2477 93.4766 32.4239C93.4689 32.6415 93.5303 32.856 93.6522 33.0376C94.8496 30.284 95.9833 27.5303 98.2864 25.4336C98.011 25.2369 97.7315 25.0402 97.4881 24.8514C95.5322 23.3448 93.6003 21.8145 91.6325 20.3276C87.8605 17.4835 84.1044 14.6157 79.9133 12.3617C77.3037 10.9498 74.6128 9.68881 71.8544 8.58526C70.3416 7.9834 68.8168 7.40513 67.2801 6.85834C65.9988 6.41382 64.6976 6.02831 63.3923 5.67821C61.5722 5.17206 59.7441 4.6869 57.908 4.22271C56.9979 3.99849 56.0639 3.82933 55.1379 3.69165C53.2538 3.37695 51.3698 3.05438 49.4779 2.78688C48.5917 2.66494 47.6777 2.70821 46.7836 2.59019C44.1803 2.31567 41.5597 2.23545 38.9442 2.35023C37.2398 2.38957 35.5394 2.57446 33.843 2.74361C32.7533 2.83802 31.6676 2.9757 30.5899 3.13699C29.9912 3.22747 29.3925 3.40055 28.8177 3.53037C27.7559 3.78606 26.6942 4.02209 25.6244 4.31712C24.7902 4.54921 23.9719 4.85211 23.1537 5.13928C22.3354 5.42644 21.601 5.68214 20.8386 5.99291C20.0783 6.27232 19.3371 6.5995 18.6193 6.97242C17.2302 7.75917 15.8811 8.60493 14.52 9.43889C14.3518 9.57365 14.1918 9.71815 14.041 9.87161C13.7314 10.1178 13.4173 10.359 13.1033 10.6006C12.454 11.1003 11.8045 11.6005 11.191 12.1414C10.3927 12.8613 9.63434 13.6598 8.88792 14.4505C6.91109 16.6424 5.31318 19.1395 4.15799 21.8421C3.01116 24.2875 2.1836 26.8663 1.69518 29.5169C1.33884 31.4948 1.19435 33.5042 1.26409 35.5119C1.40749 38.073 1.96118 40.5956 2.90461 42.9861C3.5799 44.8697 4.54078 46.6417 5.75457 48.2416C6.46506 49.1543 7.27933 49.9882 7.98584 50.9048C8.82406 51.9905 9.94967 52.7537 10.9715 53.6348C12.0771 54.5842 13.327 55.3568 14.6757 55.9243C15.3861 56.2311 16.0487 56.652 16.7752 56.8959C18.1882 57.368 19.6172 57.8046 21.0661 58.1508C22.2627 58.4375 23.4796 58.6348 24.7064 58.7409C26.445 58.8915 28.1902 58.9558 29.9353 58.9336C31.5319 58.8982 33.1006 58.6819 34.6812 58.5088C35.7789 58.3868 36.8766 58.2295 37.9703 58.0485C38.585 57.9462 39.1677 57.726 39.7984 57.6237C40.5617 57.5165 41.3156 57.3521 42.0536 57.1319C42.7398 56.909 43.4389 56.7206 44.1376 56.5334L44.1386 56.5331L44.1392 56.5329C44.5373 56.4262 44.9354 56.3202 45.3307 56.2075C46.4203 55.8967 47.51 55.6096 48.5798 55.2477C50.2442 54.6891 51.9167 54.1384 53.5412 53.4696C56.6307 52.1951 59.6988 50.8746 62.7457 49.5083C64.4182 48.7569 66.0228 47.8601 67.6593 47.03C67.8217 46.9254 68.0013 46.8496 68.1902 46.8058C68.3922 46.7685 68.6012 46.8019 68.7809 46.9002C69.2018 47.2354 69.6017 47.5953 69.9784 47.9781C70.1002 48.1294 70.2034 48.2945 70.2858 48.4698ZM125.744 43.5565C125.886 43.66 126.036 43.7533 126.191 43.8358C128.287 44.7484 130.314 45.8263 132.538 46.44C134.816 47.1323 137.174 47.5368 139.555 47.6437C140.956 47.6712 142.349 47.6004 143.754 47.5375C144.161 47.5375 144.605 47.6176 144.969 47.34C144.974 47.3355 144.98 47.3309 144.986 47.3262C144.995 47.3195 145.003 47.3125 145.011 47.3054H145.013C145.023 47.3054 145.066 47.3054 145.091 47.3054L147.298 47.0182C147.375 46.9941 147.448 46.9624 147.518 46.9238C147.673 46.8482 147.833 46.7837 147.997 46.7311C148.684 46.5501 149.394 46.4282 150.069 46.2039C150.807 45.96 151.521 45.6414 152.236 45.3306C152.95 45.0199 153.609 44.7248 154.26 44.3629C154.998 43.9459 155.673 43.4267 156.415 43.0215C156.909 42.7561 157.382 42.4558 157.832 42.123C157.911 42.0642 157.99 42.0044 158.068 41.9437C159.077 41.1318 160.012 40.2341 160.862 39.2608C161.606 38.4014 162.274 37.4801 162.857 36.5072C163.495 35.5257 164.03 34.4832 164.454 33.3956C164.885 32.1307 165.206 30.8317 165.412 29.5129C165.715 27.491 165.604 25.4298 165.085 23.451C164.945 22.8693 164.739 22.3041 164.533 21.7388C164.376 21.3063 164.219 20.8737 164.091 20.4338C163.949 19.9468 163.675 19.5365 163.401 19.1262C163.219 18.8536 163.037 18.5811 162.893 18.2859C162.713 17.9597 162.474 17.669 162.187 17.4284C161.58 16.8619 160.969 16.2955 160.311 15.7919C159.808 15.3989 159.26 15.0661 158.678 14.8006C158.064 14.559 157.432 14.367 156.786 14.2263C156.256 14.067 155.712 13.9538 155.162 13.888C152.485 13.7346 149.819 14.3378 147.478 15.6267C145.956 16.4026 144.516 17.325 143.179 18.3804C141.052 20.0439 139.214 22.0367 137.735 24.281C136.871 25.6176 136.104 27.0208 135.341 28.4188C135.318 28.461 135.295 28.5031 135.272 28.5452C134.398 30.1423 133.56 31.7552 132.741 33.3798C132.625 33.6108 132.509 33.842 132.393 34.0731C131.2 36.4475 130.009 38.8182 128.43 40.9799C127.717 42.0055 126.804 42.8813 125.744 43.5565ZM115.051 29.7254C114.968 29.2316 114.856 28.743 114.716 28.262C114.68 28.0913 114.599 27.933 114.481 27.8037C114.44 27.7591 114.395 27.7185 114.347 27.6824C114.256 27.6135 114.153 27.5606 114.042 27.5264C113.874 27.4742 113.694 27.4675 113.522 27.5069C113.349 27.5463 113.191 27.6305 113.063 27.7506C112.668 28.0484 112.329 28.4118 112.061 28.8245C111.183 30.1581 110.772 31.6765 110.385 33.2028C110.326 33.345 110.322 33.5034 110.373 33.6483C110.416 33.7697 110.496 33.8746 110.601 33.9496C110.621 33.964 110.642 33.9774 110.664 33.9896C110.987 34.1947 111.297 34.419 111.606 34.6423C111.641 34.6673 111.675 34.6923 111.71 34.7173C111.711 34.7179 111.711 34.7185 111.712 34.7191C111.721 34.7268 111.731 34.7341 111.74 34.741C111.775 34.765 111.812 34.7835 111.853 34.7959C111.905 34.8121 111.961 34.8174 112.015 34.8115C112.07 34.8056 112.123 34.7885 112.171 34.7615C112.218 34.7345 112.26 34.698 112.293 34.6544C112.715 34.2661 113.114 33.8551 113.49 33.4231C114.209 32.5235 114.791 31.5522 114.984 30.4097C115.021 30.1883 115.044 29.9604 115.051 29.7254ZM111.219 35.4883V35.3625L110.335 34.6296L110.189 34.5088C110.185 34.5424 110.181 34.575 110.176 34.6067C110.167 34.675 110.158 34.7392 110.149 34.8006C110.127 34.9508 110.107 35.084 110.097 35.2169C110.097 35.2189 110.097 35.221 110.097 35.223C110.047 35.9092 109.997 36.5945 110.001 37.2773C110.006 38.1113 110.092 38.9414 110.357 39.7643C110.788 41.0861 111.854 41.5227 113.087 40.8619C114.129 40.2445 115.048 39.4453 115.8 38.5035C115.8 38.5029 115.801 38.5022 115.801 38.5016C115.765 38.4544 115.749 38.4111 115.717 38.3915C114.747 37.7149 113.778 37.0343 112.796 36.3695C112.655 36.2883 112.496 36.2423 112.333 36.2358C111.758 36.1885 111.175 36.1649 110.596 36.1059C110.497 36.1059 110.41 35.9627 110.319 35.8836C110.318 35.883 110.318 35.8823 110.317 35.8817C110.414 35.7907 110.522 35.7126 110.64 35.6496C110.83 35.5853 111.023 35.5314 111.219 35.4883ZM103.671 29.7136C103.564 30.2469 103.455 30.7763 103.346 31.3033C103.311 31.4745 103.276 31.6454 103.24 31.8161C102.758 34.1438 102.283 36.4342 101.967 38.8202C101.967 38.8197 101.968 38.8191 101.968 38.8185C102.05 38.7414 102.126 38.6578 102.194 38.5685C102.338 38.3324 102.483 38.0963 102.627 37.8602C102.965 37.3095 103.303 36.7589 103.627 36.2082C104.249 35.2549 104.685 34.1957 104.912 33.0848C105.016 32.5615 105.157 32.0462 105.335 31.5428C105.379 31.4489 105.401 31.3477 105.401 31.246C105.402 31.1846 105.394 31.1231 105.378 31.0628C105.337 30.9027 105.242 30.7612 105.108 30.6616C104.808 30.4464 104.495 30.2469 104.143 30.0206C103.993 29.924 103.837 29.8228 103.671 29.7136ZM119.557 35.2208L117.562 38.7416L119.685 40.1341C120 39.6109 120.3 39.1271 120.583 38.6354C120.602 38.5579 120.595 38.4765 120.563 38.4033C120.224 37.3333 119.889 36.2712 119.557 35.2208Z" fill="#03121E"/>
<path d="M79.4863 32.121C79.3423 32.5238 79.1744 32.9179 78.9833 33.3012C78.2755 34.5233 77.553 35.7349 76.8159 36.936C75.9238 38.3069 74.8362 39.5443 73.5867 40.6101C72.0537 42.0427 70.1909 43.0874 68.1582 43.6549C66.1059 44.2604 63.902 44.1279 61.9394 43.2811C60.5003 42.6216 59.362 41.4577 58.7462 40.0161C57.6485 37.6559 57.5727 35.1422 57.7363 32.6167C57.7972 31.6948 57.9059 30.7747 58.0161 29.8474C58.0649 29.4373 58.1142 29.0258 58.1594 28.6121C57.892 28.8049 57.6246 29.0055 57.3611 29.1904C55.5069 30.3759 53.4623 31.2431 51.314 31.7552C48.7347 32.3404 46.0746 32.4986 43.4427 32.2233C42.0632 32.1248 40.6914 31.9409 39.3354 31.6726C38.0341 31.4051 36.7728 30.9566 35.4955 30.5751C34.7451 30.3508 33.9907 30.1305 33.2483 29.8748C32.5777 29.6388 31.9111 29.3831 31.2525 29.0881C30.8533 28.9071 30.542 28.5885 30.1588 28.3918C29.9255 28.3159 29.7598 28.2042 29.636 28.1432C29.5507 28.1251 29.5016 28.0807 29.4194 28.0518L29.3166 28.0024C28.5502 27.7467 27.7958 27.5146 27.0574 27.2156C26.5105 27.0071 25.9917 26.7278 25.4608 26.5075C24.5402 26.1938 23.5891 25.975 22.6228 25.8545C21.7089 25.7091 20.7741 25.7573 19.8806 25.9961C19.1821 26.1574 18.5634 26.6846 17.9287 27.0779C17.6366 27.2776 17.3579 27.4957 17.0945 27.7309C17.0333 27.7863 16.982 27.8515 16.9428 27.9237C16.7592 28.2148 16.5956 28.5177 16.404 28.8009C16.2124 29.0842 15.7573 28.9622 15.4899 28.6947C15.1932 28.4278 14.9634 28.0967 14.8186 27.7274C14.6738 27.3581 14.6181 26.9607 14.6557 26.5665C14.6825 25.835 14.9992 25.143 15.5378 24.639C15.7055 24.4934 15.8092 24.2771 15.9809 24.1394C16.1757 24.0096 16.3798 23.8939 16.5916 23.7932C17.5808 23.2113 18.7126 22.9066 19.8646 22.9121C20.904 22.8921 21.9384 23.0573 22.9182 23.3999C24.1156 23.8326 25.2293 24.403 26.3868 24.9104C26.9337 25.1504 27.4885 25.3667 28.0273 25.6185C28.5662 25.8703 29.0292 26.1338 29.5321 26.4053C30.542 26.9284 31.5519 27.4595 32.5697 27.9788C33.3161 28.3721 34.0665 28.734 34.8409 29.0488C36.4786 29.7123 38.1758 30.2233 39.9101 30.5751C42.3245 31.0943 44.7998 31.2835 47.2665 31.1376C47.8812 31.0943 48.4919 30.9252 49.1066 30.9055C50.3183 30.8395 51.5137 30.5997 52.6551 30.1935C54.7136 29.5288 56.6241 28.482 58.2832 27.1094C58.4353 26.9718 58.5447 26.7945 58.5985 26.598C58.9178 25.469 59.1693 24.3204 59.5325 23.2032C60.4107 20.5046 61.6361 17.987 63.6319 15.8745C64.5925 14.7997 65.7638 13.9274 67.0753 13.3102C68.3869 12.693 69.8116 12.3436 71.2637 12.283C72.2845 12.1997 73.3119 12.2447 74.3212 12.4168C76.2451 12.8101 77.5144 13.9273 78.4165 15.5638C78.9876 16.7204 79.302 17.9836 79.3385 19.2694C79.4992 21.5666 79.0695 23.8667 78.0892 25.9568C77.4785 27.2943 76.5245 28.1991 74.9718 28.4233C73.7105 28.6042 72.4651 28.8875 71.1758 28.7498C70.5532 28.6829 70.4135 28.4784 70.649 27.8922C71.0481 26.9284 71.4952 25.9883 71.7866 25.0009C72.4492 22.7626 72.9241 20.4849 72.7485 18.1325C72.7062 17.5118 72.5493 16.9039 72.2855 16.3387C71.9542 15.6503 70.8446 15.489 70.2139 15.9454C69.5118 16.4861 68.9371 17.1706 68.5295 17.9516C67.3068 20.2197 66.4082 22.6436 65.8591 25.1543C65.4507 26.7388 65.1348 28.3451 64.9131 29.9653C64.6178 32.3256 64.478 34.6859 65.1726 37.0028C65.4069 37.9219 65.95 38.7357 66.7133 39.312C67.069 39.5653 67.4811 39.7311 67.9151 39.7954C68.3491 39.8597 68.7924 39.8208 69.208 39.6817C70.5884 39.2532 71.8393 38.4935 72.8483 37.471C74.4325 36.0167 75.8125 34.3604 76.9516 32.5459C77.0261 32.403 77.1414 32.2848 77.2832 32.2058C77.4251 32.1268 77.5873 32.0905 77.7499 32.1014C78.2968 32.1486 78.8317 32.121 79.4863 32.121Z" fill="#03121E"/>
<path d="M81.6297 43.6824C80.7055 43.6741 79.8221 43.3059 79.1722 42.6581C78.5224 42.0103 78.1589 41.1355 78.1611 40.2246C78.1861 39.3303 78.5573 38.4792 79.1985 37.8458C79.8397 37.2125 80.7023 36.8447 81.6098 36.818C82.0769 36.8011 82.5428 36.8771 82.9796 37.0413C83.4163 37.2056 83.8151 37.4548 84.1521 37.7741C84.4892 38.0934 84.7576 38.4762 84.9413 38.8999C85.1251 39.3235 85.2205 39.7793 85.2218 40.24C85.2232 40.7007 85.1304 41.157 84.9491 41.5817C84.7678 42.0064 84.5017 42.3907 84.1665 42.7119C83.8313 43.0331 83.434 43.2846 82.9982 43.4513C82.5624 43.618 82.097 43.6966 81.6297 43.6824Z" fill="#03121E"/>
<path d="M119.557 35.2208C119.889 36.2712 120.224 37.3333 120.555 38.4033C120.587 38.4765 120.594 38.5579 120.575 38.6354C120.292 39.1271 119.992 39.6109 119.677 40.1341L117.553 38.7416L119.557 35.2208Z" fill="white"/>
<path fill-rule="evenodd" clip-rule="evenodd" d="M70.2858 48.4698C70.2021 48.2943 70.0976 48.1292 69.9744 47.9781C69.5977 47.5953 69.1978 47.2354 68.777 46.9002C68.5972 46.8019 68.3883 46.7685 68.1862 46.8058C67.9974 46.8496 67.8177 46.9254 67.6553 47.03C67.1385 47.2922 66.6248 47.561 66.1112 47.8298C64.9985 48.4121 63.886 48.9943 62.7418 49.5083C59.6976 50.8825 56.6294 52.2029 53.5373 53.4696C52.0312 54.0896 50.4838 54.6082 48.9399 55.1256L48.5758 55.2477C47.7637 55.5224 46.9378 55.7541 46.1121 55.9857L46.111 55.986C45.8494 56.0594 45.5878 56.1328 45.3267 56.2075C44.9338 56.32 44.5364 56.4265 44.1392 56.5329L44.1386 56.5331L44.1376 56.5334C43.438 56.7208 42.7365 56.9088 42.0496 57.132C41.3117 57.3521 40.5578 57.5165 39.7944 57.6237C39.4922 57.674 39.1977 57.7528 38.9014 57.8321C38.5951 57.9141 38.2869 57.9965 37.9663 58.0485C36.8726 58.2295 35.775 58.3868 34.6773 58.5088C34.3416 58.5452 34.0073 58.5836 33.674 58.622C32.4219 58.7661 31.1828 58.9088 29.9313 58.9336C28.1862 58.9558 26.441 58.8915 24.7024 58.7409C23.4757 58.6348 22.2588 58.4375 21.0621 58.1508C19.6132 57.8046 18.1842 57.364 16.7712 56.8959C16.3339 56.7491 15.9195 56.538 15.5041 56.3264C15.2295 56.1865 14.9544 56.0464 14.6717 55.9243C13.3231 55.3568 12.0732 54.5842 10.9675 53.6348C10.6949 53.3997 10.4149 53.1731 10.135 52.9464C9.36558 52.3235 8.59648 51.7009 7.98188 50.9048C7.6212 50.4369 7.23239 49.9904 6.84368 49.5441C6.471 49.1162 6.09837 48.6883 5.75061 48.2416C4.53718 46.6479 3.57501 44.8828 2.89666 43.0058C1.95323 40.6153 1.39954 38.0927 1.25614 35.5316C1.1864 33.5239 1.33089 31.5145 1.68723 29.5365C2.17657 26.8789 3.00681 24.2933 4.15799 21.8421C5.3128 19.1381 6.91076 16.6397 8.88796 14.4466L8.95975 14.3709C9.68206 13.6094 10.4029 12.8495 11.1911 12.1375C11.8044 11.6072 12.4541 11.1038 13.1033 10.6006C13.4174 10.3572 13.7313 10.1139 14.041 9.86768C14.1919 9.71422 14.3518 9.56972 14.52 9.43496C14.7724 9.28034 15.0246 9.12516 15.2764 8.97018L15.28 8.96798L15.2812 8.96725C16.3861 8.28736 17.4895 7.60841 18.6193 6.96849C19.3314 6.58947 20.0673 6.25573 20.8227 5.96931C21.5621 5.66791 22.3165 5.4035 23.0677 5.14022L23.1377 5.11568C23.2713 5.06886 23.4075 5.02064 23.5457 4.9717L23.5485 4.97071C24.2107 4.7362 24.9191 4.48531 25.6085 4.29352C26.4532 4.05613 27.3056 3.85695 28.1699 3.65498C28.3798 3.60593 28.5904 3.55673 28.8017 3.50677C28.927 3.4757 29.0523 3.44335 29.1777 3.411C29.6396 3.29179 30.1031 3.17217 30.574 3.11339C31.6517 2.95211 32.7374 2.81442 33.8271 2.72001C34.1541 2.69044 34.4814 2.65968 34.8087 2.62892C36.1793 2.50013 37.5525 2.37109 38.9283 2.32664C41.5438 2.21186 44.1644 2.29207 46.7676 2.5666C47.2089 2.62483 47.655 2.6438 48.1002 2.66272C48.5571 2.68214 49.0131 2.70152 49.4619 2.76328C51.1223 2.99804 52.7766 3.27521 54.4301 3.55226L54.4325 3.55266C54.6623 3.59116 54.8921 3.62967 55.1219 3.66805L55.1703 3.67607C56.0805 3.82684 56.9978 3.97879 57.892 4.19911C59.7282 4.65805 61.5563 5.14322 63.3764 5.65461C64.6817 6.02045 65.9829 6.40596 67.2642 6.83474C68.8009 7.36973 70.3257 7.9598 71.8385 8.56167C74.5969 9.66522 77.2878 10.9262 79.8974 12.3381C84.0009 14.545 87.6873 17.3327 91.38 20.1252L91.6165 20.304C92.8504 21.2363 94.0709 22.1863 95.2912 23.1361L95.2928 23.1373L95.2934 23.1379L95.2941 23.1384L95.2947 23.1389C96.0193 23.7028 96.744 24.267 97.4721 24.8278C97.6338 24.9533 97.8018 25.0732 97.9662 25.1905C98.0697 25.2643 98.1718 25.3371 98.2704 25.41C96.0143 27.4716 94.869 30.1409 93.7088 32.8449L93.6363 33.014C93.5144 32.8324 93.453 32.6179 93.4606 32.4003C93.4989 32.2054 93.5364 32.0106 93.574 31.8158C93.7638 30.8312 93.9531 29.8497 94.223 28.8875C94.5384 27.7716 94.9079 26.6714 95.2773 25.5717L95.2776 25.5708C95.3991 25.2092 95.5205 24.8476 95.64 24.4856C95.6745 24.412 95.6928 24.3321 95.6938 24.2511C95.6947 24.17 95.6783 24.0897 95.6455 24.0154C95.6127 23.9411 95.5643 23.8745 95.5035 23.8199C95.4427 23.7654 95.3709 23.7241 95.2927 23.6988C95.1251 23.6324 94.9466 23.5964 94.7659 23.5926C93.4602 23.5588 92.1595 23.7642 90.93 24.1984C90.6239 24.2669 90.3356 24.3974 90.0834 24.5816C89.8312 24.7658 89.6206 24.9997 89.4651 25.2684C89.1882 25.7865 88.9648 26.3308 88.7985 26.893C88.7242 27.2035 88.6489 27.5139 88.5737 27.8243C88.1723 29.4808 87.7708 31.1372 87.5053 32.7937C87.1061 35.2759 86.8586 37.7778 86.6191 40.2679C86.5545 41.1098 86.6042 41.9565 86.7668 42.7855C86.8554 43.1568 87.088 43.4791 87.4148 43.6835C87.7415 43.8879 88.1365 43.9581 88.5151 43.8791C89.5095 43.7158 90.4147 43.2148 91.0737 42.4629C92.1274 41.3497 92.7701 39.9768 93.4007 38.6118C93.8356 37.6654 94.2491 36.7099 94.6628 35.7541C95.0694 34.8149 95.4761 33.8752 95.9035 32.9432C96.2763 32.1364 96.6908 31.3486 97.1049 30.5616L97.1053 30.5607L97.1062 30.5589L97.1069 30.5576C97.2816 30.2255 97.4563 29.8935 97.6278 29.5601L97.7635 29.6034C97.7329 29.7647 97.7005 29.9261 97.6681 30.0874C97.6034 30.4099 97.5386 30.7324 97.4881 31.055L97.4088 31.5607C97.2192 32.769 97.0295 33.9777 96.8614 35.1894C96.8293 35.4263 96.7965 35.6632 96.7637 35.9002L96.7636 35.9009L96.7635 35.9016L96.7634 35.9023L96.7633 35.903L96.7632 35.9037L96.7618 35.9142L96.7617 35.915C96.4936 37.852 96.2254 39.7895 96.3106 41.7548C96.3091 42.0819 96.3467 42.408 96.4223 42.7265C96.524 43.0927 96.7534 43.4118 97.0703 43.6276C97.3872 43.8435 97.7712 43.9423 98.1547 43.9066C98.8852 43.7779 99.5713 43.4709 100.15 43.0136C101.348 41.9531 102.356 40.7018 103.132 39.312L104.509 37.0658C104.537 37.2511 104.561 37.436 104.586 37.6204L104.586 37.6214L104.586 37.6228C104.633 37.9738 104.679 38.3231 104.745 38.6708C104.924 39.821 105.386 40.9107 106.09 41.8453C107.184 43.2221 108.565 43.9892 110.369 43.9499C111.895 43.8827 113.341 43.2572 114.424 42.1954C115.1 41.5952 115.714 40.917 116.326 40.2396C116.517 40.0292 116.707 39.8189 116.899 39.6109C117.043 39.4575 117.138 39.367 117.338 39.4968L117.499 39.6002C117.992 39.9157 118.482 40.23 118.983 40.5314C119.178 40.6494 119.186 40.7596 119.062 40.9248C118.957 41.0671 118.854 41.2136 118.752 41.3593L118.751 41.3607L118.75 41.3616L118.749 41.3622C118.654 41.4976 118.559 41.6324 118.464 41.7627C118.275 42.006 118.077 42.2461 117.878 42.4865L117.877 42.4872L117.877 42.4878L117.876 42.4884C117.655 42.7565 117.432 43.0254 117.222 43.3008C117.119 43.4432 117.078 43.62 117.106 43.7925C117.13 43.8751 117.382 43.942 117.534 43.9459C118.219 43.9736 118.892 43.7649 119.438 43.3559C119.864 43.0325 120.268 42.6814 120.69 42.3152L120.69 42.3147C120.884 42.1466 121.081 41.9753 121.286 41.802L121.655 42.0841C122.291 42.5712 122.957 43.0804 123.629 43.584C123.768 43.6973 123.932 43.778 124.108 43.8201C125.05 43.9955 125.895 44.417 126.733 44.8355C127.041 44.9893 127.349 45.1428 127.66 45.2834C130.025 46.3937 132.5 47.2623 135.044 47.8758C138.886 48.7653 142.856 48.9889 146.776 48.5367C146.907 48.5212 147.035 48.5086 147.161 48.4963C147.419 48.471 147.669 48.4465 147.921 48.399C148.178 48.3528 148.433 48.2947 148.688 48.2367C149.104 48.1418 149.519 48.0471 149.941 48.0056C150.958 47.8492 151.952 47.5677 152.899 47.1677C153.543 46.9295 154.168 46.6273 154.789 46.3267L154.947 46.2505C155.012 46.2191 155.077 46.1879 155.142 46.1567C155.77 45.8784 156.378 45.5577 156.962 45.1969C157.579 44.7848 158.158 44.3137 158.738 43.8415L158.739 43.8405L158.749 43.8328C158.818 43.7761 158.888 43.7194 158.958 43.6627C159.49 43.2311 159.949 42.8224 160.421 42.4017C160.529 42.3049 160.639 42.2074 160.75 42.1089C160.908 41.9651 161.054 41.8097 161.215 41.639L161.215 41.6384L161.216 41.6376C161.319 41.5285 161.427 41.4132 161.548 41.2907C161.548 41.2592 161.58 41.0704 161.676 41.0192C162.055 40.8132 162.275 40.4779 162.492 40.1476C162.56 40.0428 162.629 39.9386 162.702 39.8391C163.092 39.2672 163.45 38.6749 163.776 38.065C163.963 37.7282 164.122 37.3912 164.287 37.0422C164.314 36.9835 164.342 36.9246 164.37 36.8652C164.429 36.7314 164.473 36.5906 164.518 36.4499C164.54 36.3795 164.562 36.3092 164.586 36.2397C164.687 35.9457 164.796 35.6533 164.905 35.3607L164.905 35.3597C165.139 34.7326 165.373 34.1047 165.536 33.4585C166.278 30.6904 166.487 27.8095 166.151 24.9655C165.987 23.4292 165.596 21.9249 164.989 20.5007C164.063 18.459 162.869 16.6102 160.965 15.316C159.949 14.5614 158.81 13.9816 157.597 13.6008C155.641 13.0552 153.581 12.9784 151.589 13.3766C148.83 13.9645 146.239 15.1526 144.005 16.8541C142.789 17.7575 141.643 18.7489 140.577 19.8201C139.421 20.9589 138.353 22.1818 137.383 23.4785C134.957 26.779 133.045 30.3823 131.133 33.9856C130.421 35.3213 129.642 36.6185 128.863 37.9166C128.676 38.2281 128.489 38.5396 128.303 38.8517C127.946 39.4379 127.558 40.0051 127.141 40.5511C126.71 41.1294 126.455 41.09 126.175 40.437C126.112 40.2999 126.06 40.1578 126.02 40.0122C125.954 39.7615 125.887 39.5111 125.82 39.2607L125.819 39.254L125.817 39.2472C125.597 38.4211 125.376 37.5946 125.193 36.7589C125.087 36.3962 125.105 36.0089 125.245 35.6575C126.135 34.1666 127.073 32.6993 128.039 31.2517C129.237 29.4697 130.434 27.7113 131.632 25.9529C131.802 25.7064 131.991 25.4736 132.181 25.2411C132.408 24.9615 132.635 24.6822 132.829 24.3794C133.117 23.986 132.997 23.7067 132.498 23.628C132.157 23.5731 131.809 23.5731 131.468 23.628C130.474 23.7854 129.847 24.462 129.281 25.2015C127.639 27.3687 126.137 29.6351 124.782 31.9873C124.68 32.1223 124.565 32.2475 124.439 32.361C124.392 32.2406 124.355 32.117 124.327 31.9912C124.299 31.7624 124.269 31.5335 124.239 31.3046L124.239 31.3033C124.157 30.667 124.075 30.03 124.016 29.391C123.998 29.2046 123.979 29.0178 123.959 28.8307L123.959 28.8277C123.815 27.437 123.669 26.0306 124.06 24.6272C124.102 24.5077 124.113 24.3797 124.092 24.2549C124.071 24.1301 124.018 24.0126 123.938 23.9133C123.859 23.8141 123.755 23.7362 123.636 23.687C123.518 23.6379 123.389 23.6189 123.261 23.6319C121.904 23.5478 120.567 23.9848 119.529 24.8514C119.355 24.987 119.228 25.1726 119.166 25.3825C118.965 26.1056 118.844 26.8482 118.807 27.5972C118.826 28.5695 118.894 29.5392 118.962 30.5093L118.962 30.5102C119.009 31.1763 119.055 31.8428 119.086 32.5105C119.143 32.9525 119.081 33.4014 118.907 33.8126C118.356 34.7554 117.757 35.674 117.159 36.593C116.921 36.9585 116.683 37.3241 116.448 37.6913C116.316 37.8958 116.168 37.8525 115.993 37.7306C115.612 37.4642 115.231 37.201 114.847 36.936L114.842 36.9328L114.841 36.9318L114.84 36.9314L114.839 36.9306L114.837 36.9292C114.363 36.6016 113.884 36.2712 113.398 35.9289C113.506 35.8768 113.61 35.8288 113.709 35.7829C113.975 35.6591 114.212 35.5491 114.436 35.4057C116.037 34.368 117.237 32.8302 117.845 31.0392C118.416 29.5129 118.643 27.9512 118.136 26.3423C117.987 25.7785 117.696 25.2605 117.291 24.8359C116.886 24.4112 116.379 24.0933 115.817 23.9112C114.91 23.5988 113.946 23.4807 112.99 23.5648C112.033 23.6489 111.105 23.9333 110.269 24.399C108.845 25.2162 107.683 26.4117 106.916 27.849C106.579 28.4258 106.289 29.0283 105.992 29.6454L105.991 29.6469C105.901 29.8331 105.811 30.0206 105.719 30.2092C105.592 30.1207 105.464 30.0288 105.335 29.9355C105.026 29.7137 104.708 29.4846 104.373 29.2769C104.21 29.1868 104.086 29.0395 104.027 28.8641C103.968 28.6886 103.978 28.4976 104.054 28.3289C104.298 27.4202 104.521 26.5036 104.705 25.5752C104.92 24.4777 104.354 23.6674 103.372 23.5611C102.005 23.4311 100.636 23.7717 99.4958 24.5249L99.444 24.5571C98.8175 24.9463 98.813 24.9491 98.2066 24.4856L98.1108 24.4108C97.3542 23.7985 96.6001 23.1795 95.8454 22.56C94.6608 21.5878 93.4747 20.6143 92.2751 19.6628L92.2307 19.6275C89.2678 17.279 86.3075 14.9324 83.0507 12.9754C80.8793 11.6733 78.684 10.3948 76.4287 9.24221C74.3811 8.19582 72.2576 7.27532 70.1341 6.40596C68.2461 5.6192 66.3302 4.89932 64.3863 4.27779C62.5068 3.68198 60.6274 3.16612 58.7344 2.64655L58.7333 2.64624C58.2145 2.50384 57.6947 2.36117 57.1736 2.21649C54.4181 1.49665 51.6182 0.953956 48.7913 0.591842C46.9991 0.328279 45.199 0.198464 43.3748 0.10012C38.8365 -0.128039 34.314 -0.0139618 29.8515 0.945879C29.5684 1.00532 29.2832 1.05575 28.9979 1.10618C28.6035 1.17592 28.2089 1.24567 27.8198 1.33926C27.0393 1.53335 26.2655 1.76029 25.4923 1.98706L25.2732 2.05127C24.6346 2.24009 23.9999 2.43809 23.3692 2.64527C23.1059 2.7345 22.8457 2.83627 22.5865 2.93765C22.3429 3.03294 22.1001 3.12787 21.8565 3.21173C21.4572 3.34867 21.0654 3.50624 20.6829 3.68379C20.4588 3.79632 20.2481 3.92982 20.0366 4.06384C19.8489 4.1828 19.6605 4.30216 19.4615 4.4076C19.1924 4.5482 18.9232 4.68344 18.6554 4.81798C18.1289 5.08245 17.6079 5.34424 17.1025 5.63887C16.3903 6.07254 15.7206 6.5557 15.0559 7.03536C14.8825 7.16048 14.7094 7.28536 14.536 7.40907C14.4104 7.49867 14.2844 7.58791 14.1585 7.67712C13.5601 8.10103 12.9625 8.52435 12.4085 8.98258C11.9204 9.39716 11.4762 9.86265 11.0323 10.3279L11.0318 10.3284C10.9242 10.4412 10.8163 10.5542 10.7081 10.6662C9.91052 11.4296 9.15503 12.2346 8.4449 13.0776C7.4989 14.2971 6.63274 15.5795 5.81447 16.8816C5.31784 17.6718 4.89483 18.5093 4.47302 19.3445L4.47254 19.3454C4.37592 19.5367 4.27934 19.7279 4.18194 19.9185C3.80978 20.6146 3.47665 21.3303 3.18405 22.0624C2.8971 22.8157 2.63486 23.5792 2.3728 24.3423C2.20108 24.8423 2.02942 25.3421 1.85088 25.8388C1.03903 28.2706 0.587328 30.8052 0.509722 33.3641C0.458312 35.1885 0.61091 37.013 0.964757 38.8045C1.3626 41.1771 2.13572 43.4735 3.2559 45.6099C4.2814 47.6021 5.58167 49.4448 7.11971 51.0857C8.24493 52.3016 9.47494 53.419 10.7959 54.4255C11.8763 55.193 13.0085 55.887 14.1847 56.5026C15.1264 57.0013 16.0936 57.4517 17.0826 57.8518C18.4197 58.4118 19.8381 58.7316 21.2415 59.0481L21.243 59.0484L21.2438 59.0486L21.2445 59.0488C21.654 59.1411 22.0626 59.2333 22.4672 59.3309C23.5478 59.5471 24.6409 59.6982 25.7402 59.7833C26.6028 59.9045 27.4717 59.9767 28.3427 59.9997C30.087 59.9997 31.8353 59.9721 33.5756 59.8699C35.1203 59.7794 36.6691 59.6181 38.2058 59.4017C39.8942 59.1657 41.5786 58.8589 43.2551 58.5402C44.4725 58.3082 45.67 58.0328 46.8674 57.7181C47.65 57.5226 48.4201 57.2746 49.1915 57.0261L49.3003 56.991L49.4859 56.9313C50.0424 56.7537 50.601 56.5804 51.1595 56.4071C52.5799 55.9664 54.001 55.5255 55.3933 55.0117C57.7883 54.1226 60.1832 53.1628 62.5502 52.1518C64.1124 51.4831 65.6477 50.7512 67.1828 50.0195L67.1845 50.0186C67.6804 49.7823 68.1763 49.5459 68.6732 49.3116C69.0741 49.1299 69.4494 48.9249 69.8444 48.7091C69.9882 48.6306 70.1346 48.5506 70.2858 48.4698ZM79.4863 32.121H77.7579C77.5954 32.1102 77.4331 32.1465 77.2913 32.2255C77.1494 32.3045 77.0341 32.4227 76.9596 32.5656C75.8205 34.38 74.4406 36.0364 72.8563 37.4906C71.8473 38.5132 70.5965 39.2728 69.2161 39.7014C68.8005 39.8404 68.3571 39.8794 67.9231 39.8151C67.4891 39.7507 67.077 39.585 66.7213 39.3316C65.958 38.7554 65.415 37.9416 65.1806 37.0225C64.4861 34.6937 64.6258 32.3335 64.9212 29.985C65.1428 28.3648 65.4587 26.7585 65.8671 25.174C66.4113 22.6697 67.3032 20.2512 68.5175 17.987C68.9251 17.206 69.4998 16.5215 70.202 15.9808C70.8326 15.5284 71.9423 15.6897 72.2736 16.3741C72.5373 16.9393 72.6942 17.5472 72.7366 18.1679C72.9122 20.5282 72.4372 22.798 71.7746 25.0363C71.5762 25.7086 71.2983 26.3589 71.0201 27.0098C70.8898 27.3148 70.7593 27.62 70.637 27.9276C70.4015 28.5138 70.5412 28.7144 71.1639 28.7852C72.1995 28.8958 73.2072 28.7347 74.2172 28.5733C74.4644 28.5338 74.7118 28.4943 74.9599 28.4587C76.5126 28.2345 77.4666 27.3297 78.0773 25.9922C79.0576 23.9021 79.4873 21.602 79.3266 19.3048C79.29 18.019 78.9757 16.7558 78.4046 15.5992C77.5145 13.9549 76.2332 12.8219 74.3092 12.4522C73.2999 12.2801 72.2725 12.2351 71.2517 12.3184C69.8043 12.376 68.3835 12.7207 67.0743 13.3317C65.7651 13.9427 64.5943 14.8075 63.6319 15.8745C61.6601 17.983 60.4387 20.5046 59.5485 23.2032C59.3227 23.8978 59.1401 24.6046 58.9575 25.3112L58.9573 25.3119C58.8463 25.7415 58.7352 26.1713 58.6145 26.598C58.5607 26.7945 58.4513 26.9718 58.2992 27.1094C56.6401 28.482 54.7297 29.5288 52.6711 30.1935C51.5297 30.5997 50.3343 30.8395 49.1226 30.9055C48.7757 30.9055 48.43 30.9656 48.0842 31.0258C47.8173 31.0723 47.5503 31.1187 47.2825 31.1376C44.8161 31.2754 42.3421 31.0782 39.9301 30.5515C38.1958 30.1997 36.4986 29.6887 34.8609 29.0251C34.0865 28.7104 33.3361 28.3328 32.5897 27.9552C31.5719 27.4477 30.562 26.9167 29.5521 26.3817C29.3548 26.2798 29.159 26.1753 28.9634 26.071C28.6607 25.9095 28.3577 25.7478 28.0473 25.5949C27.7262 25.4366 27.3762 25.2922 27.025 25.1473L27.0243 25.147C26.8172 25.0615 26.6095 24.9758 26.4068 24.8868C26.0372 24.7248 25.6703 24.5563 25.3038 24.388C24.5225 24.0291 23.7424 23.6708 22.9382 23.3763C21.9562 23.0315 20.9189 22.8649 19.8767 22.8845C18.7246 22.8791 17.5929 23.1838 16.6036 23.7657C16.3918 23.8663 16.1877 23.982 15.9929 24.1119C15.9036 24.1835 15.8327 24.2764 15.7615 24.3696C15.696 24.4555 15.6302 24.5416 15.5498 24.6115C15.0112 25.1155 14.6945 25.8075 14.6677 26.539C14.6301 26.9332 14.6859 27.3306 14.8306 27.6999C14.9754 28.0692 15.2052 28.4003 15.5019 28.6672C15.7694 28.9347 16.2643 29.0015 16.416 28.7734C16.5014 28.6449 16.6034 28.4751 16.7089 28.2994C16.7907 28.1631 16.8747 28.0233 16.9549 27.8962C16.994 27.8239 17.0453 27.7587 17.1065 27.7034C17.37 27.4682 17.6486 27.25 17.9408 27.0504C18.1033 26.9497 18.2648 26.8401 18.4268 26.7303C18.8975 26.411 19.373 26.0886 19.8926 25.9686C20.7861 25.7298 21.7209 25.6815 22.6348 25.827C23.6012 25.9475 24.5522 26.1663 25.4728 26.48C25.7295 26.5842 25.9808 26.7015 26.2309 26.8183C26.5099 26.9486 26.7874 27.0782 27.0694 27.1881C27.4923 27.348 27.9206 27.4926 28.3532 27.6385C28.676 27.7474 29.0012 27.8572 29.3286 27.9748L29.4814 28.0518C29.5112 28.0623 29.5409 28.0749 29.5705 28.0875C29.6225 28.1095 29.6746 28.1317 29.7289 28.1432C29.7629 28.1633 29.7921 28.1816 29.8193 28.1987C29.916 28.2594 29.9888 28.3051 30.1708 28.3643C30.3667 28.4608 30.5405 28.5867 30.7125 28.7113C30.8909 28.8406 31.0674 28.9684 31.2645 29.0606C31.9111 29.3595 32.5777 29.6152 33.2603 29.8473C33.9163 30.0733 34.582 30.2716 35.2458 30.4694L35.5075 30.5475C35.7756 30.6301 36.0434 30.7147 36.3106 30.7991C37.3163 31.1168 38.3194 31.4337 39.3474 31.645C40.7034 31.9133 42.0752 32.0973 43.4547 32.1958C46.0811 32.4787 48.737 32.3299 51.314 31.7552C53.4589 31.2524 55.5021 30.3959 57.3572 29.2218C57.5591 29.0911 57.7549 28.9438 57.9427 28.8024C58.0148 28.7482 58.0858 28.6948 58.1555 28.6436C58.1114 29.0467 58.0637 29.4478 58.0161 29.8474C57.9046 30.7854 57.794 31.7158 57.7324 32.6482C57.5687 35.1736 57.6446 37.6755 58.7422 40.0476C59.358 41.4892 60.4964 42.6531 61.9355 43.3126C63.898 44.1594 66.1019 44.2919 68.1543 43.6863C70.187 43.1189 72.0497 42.0741 73.5828 40.6416C74.8309 39.5692 75.9158 38.3251 76.804 36.9478C77.5437 35.7493 78.2662 34.5377 78.9714 33.313C79.1669 32.9261 79.3389 32.5281 79.4863 32.121ZM81.6297 43.6824C82.097 43.6966 82.5624 43.618 82.9982 43.4513C83.434 43.2846 83.8313 43.0331 84.1665 42.7119C84.5017 42.3907 84.7678 42.0064 84.9491 41.5817C85.1304 41.157 85.2232 40.7007 85.2218 40.24C85.2205 39.7793 85.1251 39.3235 84.9413 38.8999C84.7576 38.4762 84.4892 38.0934 84.1521 37.7741C83.8151 37.4548 83.4163 37.2056 82.9796 37.0413C82.5428 36.8771 82.0769 36.8011 81.6098 36.818C80.7023 36.8447 79.8397 37.2125 79.1985 37.8458C78.5573 38.4792 78.1861 39.3303 78.1611 40.2246C78.1589 41.1355 78.5224 42.0103 79.1722 42.6581C79.8221 43.3059 80.7055 43.6741 81.6297 43.6824ZM144.969 47.34C144.974 47.3355 144.98 47.3309 144.986 47.3262C144.995 47.3195 145.003 47.3125 145.011 47.3054H145.013L145.027 47.2936H145.107L147.314 47.0064C147.391 46.9823 147.464 46.9506 147.534 46.912C147.689 46.8364 147.849 46.7719 148.013 46.7193C148.266 46.6526 148.522 46.5939 148.779 46.5352C149.218 46.4345 149.659 46.3337 150.085 46.1921C150.823 45.9482 151.569 45.6217 152.252 45.3188L152.342 45.2788C152.995 44.9891 153.654 44.6971 154.276 44.3511C154.616 44.1588 154.943 43.9422 155.27 43.726C155.651 43.4735 156.031 43.2216 156.431 43.0097C156.919 42.7475 157.387 42.4511 157.832 42.123C157.911 42.0642 157.99 42.0044 158.068 41.9437C159.077 41.1318 160.012 40.2341 160.862 39.2608C161.606 38.4014 162.274 37.4801 162.857 36.5072C163.495 35.5257 164.03 34.4832 164.454 33.3956C164.885 32.1307 165.206 30.8317 165.412 29.5129C165.715 27.491 165.604 25.4298 165.085 23.451C164.945 22.8693 164.739 22.3041 164.533 21.7388C164.376 21.3063 164.219 20.8737 164.091 20.4338C163.949 19.9468 163.675 19.5365 163.401 19.1262C163.219 18.8536 163.037 18.5811 162.893 18.2859C162.713 17.9597 162.474 17.669 162.187 17.4284C161.58 16.8619 160.969 16.2955 160.311 15.7919C159.808 15.3989 159.26 15.0661 158.678 14.8006C158.064 14.559 157.432 14.367 156.786 14.2263C156.256 14.067 155.712 13.9538 155.162 13.888C152.485 13.7346 149.819 14.3378 147.478 15.6267C145.956 16.4026 144.516 17.325 143.179 18.3804C141.052 20.0439 139.214 22.0367 137.735 24.281C136.871 25.6176 136.104 27.0208 135.341 28.4188L135.272 28.5452C134.398 30.1423 133.56 31.7552 132.741 33.3798C132.625 33.6108 132.509 33.842 132.393 34.0731C131.2 36.4475 130.009 38.8182 128.43 40.9799C127.717 42.0055 126.804 42.8813 125.744 43.5565C125.892 43.6566 126.046 43.746 126.207 43.824C126.756 44.0628 127.299 44.313 127.843 44.5632C129.377 45.269 130.912 45.9751 132.554 46.4282C134.832 47.1205 137.189 47.525 139.571 47.6319C140.872 47.6574 142.167 47.5985 143.461 47.5397L143.77 47.5257C143.862 47.5222 143.957 47.5244 144.052 47.5266C144.368 47.534 144.691 47.5415 144.969 47.34ZM114.716 28.262C114.856 28.743 114.968 29.2316 115.051 29.7254C115.044 29.9604 115.021 30.1883 114.984 30.4097C114.791 31.5522 114.209 32.5235 113.49 33.4231C113.114 33.8551 112.715 34.2661 112.293 34.6544C112.26 34.698 112.218 34.7345 112.171 34.7615C112.123 34.7885 112.07 34.8056 112.015 34.8115C111.961 34.8174 111.905 34.8121 111.853 34.7959C111.812 34.7835 111.775 34.765 111.74 34.741C111.736 34.7372 111.731 34.7332 111.726 34.7291L111.712 34.7191L111.71 34.7173L111.606 34.6423C111.297 34.419 110.987 34.1947 110.664 33.9896C110.642 33.9774 110.621 33.964 110.601 33.9496C110.504 33.8756 110.43 33.7753 110.389 33.6601C110.338 33.5152 110.342 33.3568 110.401 33.2146C110.8 31.6883 111.199 30.1699 112.077 28.8363C112.345 28.4236 112.684 28.0602 113.079 27.7624C113.207 27.6423 113.365 27.5581 113.538 27.5187C113.71 27.4793 113.89 27.486 114.058 27.5382C114.162 27.5704 114.26 27.6193 114.347 27.6824C114.395 27.7185 114.44 27.7591 114.481 27.8037C114.599 27.933 114.68 28.0913 114.716 28.262ZM111.219 35.4883V35.3625L110.335 34.6296L110.189 34.5128C110.185 34.545 110.181 34.5762 110.176 34.6067C110.167 34.675 110.158 34.7392 110.149 34.8006C110.127 34.9508 110.107 35.084 110.097 35.2169L110.097 35.2209L110.097 35.223C110.047 35.9092 109.997 36.5945 110.001 37.2773C110.006 38.1113 110.092 38.9414 110.357 39.7643C110.788 41.0861 111.854 41.5227 113.087 40.8619C114.129 40.2445 115.048 39.4453 115.8 38.5035C115.787 38.4871 115.777 38.4712 115.768 38.4567C115.752 38.4301 115.738 38.408 115.717 38.3954L115.308 38.1099L115.307 38.1092C114.474 37.5273 113.639 36.9446 112.796 36.3735C112.655 36.2922 112.496 36.2463 112.333 36.2397C112.101 36.2206 111.867 36.2054 111.634 36.1902C111.288 36.1677 110.942 36.1451 110.596 36.1099C110.527 36.1044 110.464 36.0367 110.401 35.9694C110.373 35.9396 110.345 35.9098 110.317 35.8857L110.319 35.8836L110.317 35.8817C110.414 35.7907 110.522 35.7126 110.64 35.6496C110.83 35.5853 111.023 35.5314 111.219 35.4883ZM103.346 31.3033C103.455 30.7763 103.564 30.2469 103.671 29.7136C103.837 29.8228 103.993 29.924 104.143 30.0206C104.495 30.2477 104.808 30.4499 105.108 30.6734C105.242 30.773 105.337 30.9145 105.379 31.0747C105.393 31.1311 105.401 31.1886 105.401 31.246C105.401 31.3477 105.379 31.4489 105.335 31.5428C105.157 32.0462 105.016 32.5615 104.912 33.0848C104.685 34.1957 104.249 35.2549 103.627 36.2082C103.303 36.7589 102.965 37.3095 102.627 37.8602C102.483 38.0963 102.338 38.3324 102.194 38.5685C102.126 38.6578 102.05 38.7414 101.968 38.8185C102.285 36.4283 102.759 34.1399 103.24 31.8161C103.276 31.6454 103.311 31.4745 103.346 31.3033Z" fill="white"/>
</svg>
